<svg width="50" height="20" viewBox="0 0 158 71" fill="none" xmlns="http://www.w3.org/2000/svg">
<path d="M103.297 1.84266C102.853 1.84293 102.414 1.96105 102.005 2.19025C101.595 2.41946 101.223 2.75526 100.91 3.17846C100.291 4.01334 99.9198 5.1926 99.9198 6.40316V61.4485C99.9198 62.6591 100.276 63.8175 100.91 64.6732C101.224 65.0964 101.596 65.432 102.005 65.6611C102.415 65.8901 102.854 66.008 103.297 66.008C103.741 66.008 104.18 65.8901 104.59 65.6611C104.999 65.432 105.371 65.0964 105.685 64.6732C106.304 63.8383 106.675 62.6591 106.675 61.4485V6.40108C106.675 5.19051 106.319 4.03212 105.685 3.17638C105.371 2.75293 104.999 2.41698 104.589 2.18777C104.18 1.95855 103.74 1.84057 103.297 1.84058V1.84266ZM51.8507 21.2451C51.8507 18.728 50.3386 16.6867 48.4768 16.6867C46.6151 16.6867 45.103 18.728 45.103 21.2451V61.4443C45.103 63.9615 46.6151 66.0027 48.4768 66.0027C50.3386 66.0027 51.8507 63.9615 51.8507 61.4443V21.2451Z" fill="white"/>
<path d="M52.8037 6.40948C52.7818 7.93875 52.3162 9.39547 51.5068 10.467C50.6978 11.5372 49.6098 12.1368 48.4766 12.1368C47.3433 12.1368 46.2553 11.5372 45.4463 10.467C44.637 9.39547 44.1713 7.93875 44.1494 6.40948C44.1489 4.85978 44.6048 3.37326 45.4169 2.27685C45.8182 1.73406 46.2949 1.3034 46.8198 1.00956C47.3447 0.715711 47.9075 0.564453 48.4758 0.564453C49.0441 0.564453 49.6069 0.715711 50.1318 1.00956C50.6567 1.3034 51.1334 1.73406 51.5347 2.27685C52.3467 3.37326 52.8027 4.85978 52.8022 6.40948H52.8037Z" fill="#00AEEF"/>
<path d="M93.8188 31.2344C90.575 21.3286 82.9003 14.3282 74.1439 15.5388C71.1916 15.9596 68.3518 17.297 65.8471 19.446C63.3413 21.5964 61.2385 24.4996 59.703 27.9283C58.1669 31.359 57.2395 35.222 56.9931 39.2158C56.7455 43.2107 57.1881 47.2306 58.2823 50.9541C59.3763 54.6788 61.094 58.0119 63.3012 60.6929C65.5079 63.372 68.1441 65.3264 71.0037 66.4035C73.863 67.4801 76.8683 67.6483 79.7839 66.8951C82.6995 66.1419 85.446 64.4876 87.8078 62.0621C88.2051 61.6512 88.5293 61.1256 88.7565 60.5239C88.984 59.9228 89.1094 59.2591 89.1217 58.5828C89.1472 57.3836 88.8187 56.2197 88.2085 55.3467C87.5984 54.4737 86.7563 53.9628 85.8671 53.9263C85.103 53.8933 84.3536 54.2144 83.7438 54.8363C81.4062 57.2708 78.5003 58.4982 75.5507 58.2969C73.155 58.132 70.8449 57.0416 68.8959 55.1556C66.9383 53.2723 65.4195 50.6752 64.5177 47.6689C64.3947 47.2636 64.3872 46.8113 64.4966 46.399C64.606 45.9867 64.8246 45.6436 65.1104 45.4356C65.2998 45.2984 65.5114 45.2267 65.7263 45.2269H89.1651C90.2943 45.2332 91.3995 44.7863 92.3398 43.9429C93.2801 43.0996 94.0131 41.898 94.4456 40.4911C94.7337 39.557 94.8825 38.5556 94.8835 37.544C94.8362 35.3725 94.4822 33.2332 93.8404 31.2407L93.8188 31.2344ZM76.1372 24.4469C78.6466 24.4477 81.098 25.4642 83.1742 27.3648C85.2518 29.2676 86.8583 31.9672 87.7861 35.1145C87.8645 35.3829 87.8937 35.6729 87.8713 35.9598C87.848 36.2465 87.7733 36.5212 87.6535 36.7601C87.5338 36.9991 87.3727 37.195 87.1841 37.3311C86.9956 37.4673 86.7851 37.539 86.5713 37.5398H65.7016C65.4876 37.5402 65.2769 37.4684 65.0887 37.3311C64.8999 37.1933 64.739 36.9971 64.6182 36.7613C64.4975 36.5254 64.4232 36.2478 64.4016 35.9598C64.3792 35.6729 64.4084 35.3829 64.4867 35.1145C65.4145 31.9672 67.021 29.2676 69.0986 27.3648C71.1782 25.4737 73.6275 24.4581 76.1356 24.4469H76.1372ZM130.959 58.3136C128.553 58.3143 126.198 57.3803 124.175 55.6232C122.151 53.859 120.541 51.3542 119.533 48.4015C118.535 45.4451 118.189 42.1643 118.534 38.9498C118.88 35.7354 119.903 32.7226 121.483 30.2701L116.375 24.3905C114.722 26.9804 113.465 29.9859 112.677 33.2339C111.886 36.4821 111.579 39.9085 111.771 43.3171C111.963 46.7255 112.653 50.0504 113.783 53.0998C114.929 56.1477 116.509 58.8607 118.434 61.0833C120.357 63.3052 122.587 64.9932 124.996 66.0508C127.403 67.1081 129.942 67.5124 132.466 67.2404C134.99 66.9687 137.45 66.0252 139.703 64.4645C141.956 62.9052 143.96 60.761 145.598 58.1549L140.49 52.2774C139.315 54.1687 137.846 55.6892 136.188 56.7315C134.531 57.7744 132.724 58.3138 130.895 58.3115L130.959 58.3136Z" fill="white"/>
<path d="M130.959 15.3843C128.198 15.3797 125.468 16.1807 122.958 17.7324C120.445 19.2844 118.211 21.5499 116.408 24.3738L121.5 30.2534C123.669 26.8827 126.738 24.8055 130.038 24.4751C133.338 24.1447 136.601 25.5879 139.115 28.4897C141.63 31.3965 143.192 35.5239 143.464 39.9755C143.733 44.4278 142.689 48.8437 140.557 52.2628L145.649 58.1403C148.018 54.3568 149.538 49.7401 150.029 44.8324C150.519 39.9234 149.959 34.9277 148.416 30.4329C146.873 25.9402 144.41 22.136 141.317 19.4689C138.221 16.8117 134.629 15.3952 130.959 15.3843V15.3843Z" fill="#00AEEF"/>
<path d="M38.8812 55.0409C38.2995 54.3607 37.5628 53.9694 36.7934 53.9318C36.024 53.8942 35.2683 54.2127 34.6516 54.8342C32.7956 56.7498 30.5793 57.9268 28.2532 58.2322C25.9272 58.5376 23.5841 57.9592 21.4891 56.5624C19.3938 55.1632 17.629 53.0044 16.3927 50.328C15.1567 47.6489 14.4997 44.5575 14.4959 41.4021C14.4921 38.2467 15.1415 35.1525 16.3711 32.4679C17.5996 29.7854 19.3594 27.6189 21.4519 26.2127C23.5434 24.805 25.8855 24.2156 28.2126 24.5111C30.5398 24.8066 32.7591 25.9752 34.6191 27.8845C35.2286 28.5181 35.9811 28.8502 36.7505 28.8251C37.5198 28.8 38.2595 28.4193 38.8456 27.7467C39.2248 27.3084 39.5266 26.7658 39.7278 26.1542C39.929 25.5427 40.0311 24.8748 40.0218 24.2027C40.0125 23.5306 39.8887 22.8711 39.6659 22.272C39.443 21.673 39.1211 21.145 38.7296 20.7359C35.8784 17.7924 32.473 15.9848 28.8991 15.5179C25.3239 15.0494 21.7229 15.9425 18.5052 18.0956C15.2874 20.2488 12.5819 23.5758 10.6959 27.6987C8.80712 31.822 7.80966 36.5748 7.81595 41.4215C7.82224 46.2682 8.83203 51.0162 10.7315 55.1306C12.6305 59.2407 15.3449 62.5516 18.5672 64.6885C21.7895 66.8254 25.391 67.7029 28.9641 67.2217C32.5364 66.7386 35.937 64.9158 38.7806 61.9599C39.1671 61.5511 39.4813 61.0316 39.7006 60.4388C39.9198 59.8461 40.0385 59.195 40.0481 58.5327C40.058 57.8706 39.9585 57.2138 39.757 56.6098C39.5554 56.0059 39.2568 55.47 38.8828 55.0409H38.8812Z" fill="white"/>
</svg>
